{
	"patcher" : 	{
		"fileversion" : 1,
		"appversion" : 		{
			"major" : 8,
			"minor" : 1,
			"revision" : 5,
			"architecture" : "x64",
			"modernui" : 1
		}
,
		"classnamespace" : "box",
		"rect" : [ 206.0, 86.0, 1098.0, 705.0 ],
		"bglocked" : 0,
		"openinpresentation" : 0,
		"default_fontsize" : 12.0,
		"default_fontface" : 0,
		"default_fontname" : "Arial",
		"gridonopen" : 1,
		"gridsize" : [ 15.0, 15.0 ],
		"gridsnaponopen" : 1,
		"objectsnaponopen" : 1,
		"statusbarvisible" : 2,
		"toolbarvisible" : 1,
		"lefttoolbarpinned" : 0,
		"toptoolbarpinned" : 0,
		"righttoolbarpinned" : 0,
		"bottomtoolbarpinned" : 0,
		"toolbars_unpinned_last_save" : 0,
		"tallnewobj" : 0,
		"boxanimatetime" : 200,
		"enablehscroll" : 1,
		"enablevscroll" : 1,
		"devicewidth" : 0.0,
		"description" : "",
		"digest" : "",
		"tags" : "",
		"style" : "",
		"subpatcher_template" : "",
		"assistshowspatchername" : 0,
		"boxes" : [ 			{
				"box" : 				{
					"format" : 6,
					"id" : "obj-42",
					"maxclass" : "flonum",
					"numinlets" : 1,
					"numoutlets" : 2,
					"outlettype" : [ "", "bang" ],
					"parameter_enable" : 0,
					"patching_rect" : [ 200.399999999999977, 1194.5, 50.0, 22.0 ]
				}

			}
, 			{
				"box" : 				{
					"format" : 6,
					"id" : "obj-45",
					"maxclass" : "flonum",
					"numinlets" : 1,
					"numoutlets" : 2,
					"outlettype" : [ "", "bang" ],
					"parameter_enable" : 0,
					"patching_rect" : [ 172.0, 1278.158536585365709, 50.0, 22.0 ]
				}

			}
, 			{
				"box" : 				{
					"id" : "obj-49",
					"maxclass" : "newobj",
					"numinlets" : 6,
					"numoutlets" : 1,
					"outlettype" : [ "" ],
					"patching_rect" : [ 172.0, 1241.0, 90.0, 22.0 ],
					"text" : "scale 0. 1. 0. 1."
				}

			}
, 			{
				"box" : 				{
					"format" : 6,
					"id" : "obj-50",
					"maxclass" : "flonum",
					"numinlets" : 1,
					"numoutlets" : 2,
					"outlettype" : [ "", "bang" ],
					"parameter_enable" : 0,
					"patching_rect" : [ 172.899999999999977, 1153.0, 50.0, 22.0 ]
				}

			}
, 			{
				"box" : 				{
					"id" : "obj-51",
					"maxclass" : "newobj",
					"numinlets" : 1,
					"numoutlets" : 1,
					"outlettype" : [ "float" ],
					"patching_rect" : [ 172.899999999999977, 1115.0, 35.0, 22.0 ],
					"text" : "avg~"
				}

			}
, 			{
				"box" : 				{
					"id" : "obj-38",
					"maxclass" : "preset",
					"numinlets" : 1,
					"numoutlets" : 4,
					"outlettype" : [ "preset", "int", "preset", "int" ],
					"patching_rect" : [ 753.0, 98.0, 100.0, 40.0 ],
					"preset_data" : [ 						{
							"number" : 1,
							"data" : [ 5, "obj-2", "playlist~", "preset_count", 1, 7, "obj-2", "playlist~", "preset_clipstate", 1, "filekind", "audiofile", 7, "obj-2", "playlist~", "preset_clipstate", 1, "absolutepath", "jongly.aif", 7, "obj-2", "playlist~", "preset_clipstate", 1, "filename", "jongly.aif", 7, "obj-2", "playlist~", "preset_clipstate", 1, "loop", 1, 8, "obj-2", "playlist~", "preset_clipstate", 1, "selection", 0.0, 1.0, 7, "obj-2", "playlist~", "preset_clipstate", 1, "id", "u893000345", 7, "obj-2", "playlist~", "preset_content", 1, "loop", 1, 4, "obj-2", "playlist~", "preset_execute", 5, "obj-3", "live.gain~", "float", -36.503936767578125, 5, "obj-10", "toggle", "int", 1, 5, "obj-9", "umenu", "int", 1, 5, "obj-17", "umenu", "int", 0, 5, "obj-16", "umenu", "int", 3, 5, "obj-15", "umenu", "int", 3, 5, "obj-31", "flonum", "float", 20.603654861450195, 5, "obj-30", "flonum", "float", 11.199999809265137, 5, "obj-33", "live.gain~", "float", -17.619125366210938, 5, "obj-35", "live.gain~", "float", -41.414562225341797, 5, "obj-39", "flonum", "float", 0.060365438461304, 5, "obj-41", "flonum", "float", 0.060365438461304, 5, "obj-43", "flonum", "float", 0.0, 5, "obj-19", "toggle", "int", 1, 5, "obj-64", "umenu", "int", 3, 5, "obj-63", "umenu", "int", 2, 5, "obj-62", "umenu", "int", 3, 5, "obj-61", "umenu", "int", 1, 5, "obj-89", "flonum", "float", 14.600000381469727, 5, "obj-87", "flonum", "float", 1.200000047683716, 5, "obj-83", "live.gain~", "float", -14.230781555175781, 5, "obj-94", "toggle", "int", 1 ]
						}
, 						{
							"number" : 2,
							"data" : [ 5, "obj-2", "playlist~", "preset_count", 1, 7, "obj-2", "playlist~", "preset_clipstate", 1, "filekind", "audiofile", 7, "obj-2", "playlist~", "preset_clipstate", 1, "absolutepath", "jongly.aif", 7, "obj-2", "playlist~", "preset_clipstate", 1, "filename", "jongly.aif", 7, "obj-2", "playlist~", "preset_clipstate", 1, "loop", 1, 8, "obj-2", "playlist~", "preset_clipstate", 1, "selection", 0.0, 1.0, 7, "obj-2", "playlist~", "preset_clipstate", 1, "id", "u893000345", 7, "obj-2", "playlist~", "preset_content", 1, "loop", 1, 4, "obj-2", "playlist~", "preset_execute", 5, "obj-3", "live.gain~", "float", -29.614173889160156, 5, "obj-10", "toggle", "int", 1, 5, "obj-9", "umenu", "int", 1, 5, "obj-17", "umenu", "int", 0, 5, "obj-16", "umenu", "int", 3, 5, "obj-15", "umenu", "int", 2, 5, "obj-31", "flonum", "float", 16609310696013824.0, 5, "obj-30", "flonum", "float", 11.199999809265137, 5, "obj-33", "live.gain~", "float", -26.788862228393555, 5, "obj-35", "live.gain~", "float", -41.414562225341797, 5, "obj-39", "flonum", "float", 0.368800789117813, 5, "obj-41", "flonum", "float", 1660931096444928.0, 5, "obj-43", "flonum", "float", 0.0, 5, "obj-19", "toggle", "int", 1, 5, "obj-64", "umenu", "int", 3, 5, "obj-63", "umenu", "int", 2, 5, "obj-62", "umenu", "int", 3, 5, "obj-61", "umenu", "int", 1, 5, "obj-89", "flonum", "float", 14.600000381469727, 5, "obj-87", "flonum", "float", 1.200000047683716, 5, "obj-83", "live.gain~", "float", -22.696565628051758, 5, "obj-94", "toggle", "int", 1 ]
						}
, 						{
							"number" : 3,
							"data" : [ 5, "obj-2", "playlist~", "preset_count", 1, 7, "obj-2", "playlist~", "preset_clipstate", 1, "filekind", "audiofile", 7, "obj-2", "playlist~", "preset_clipstate", 1, "absolutepath", "jongly.aif", 7, "obj-2", "playlist~", "preset_clipstate", 1, "filename", "jongly.aif", 7, "obj-2", "playlist~", "preset_clipstate", 1, "loop", 1, 8, "obj-2", "playlist~", "preset_clipstate", 1, "selection", 0.0, 1.0, 7, "obj-2", "playlist~", "preset_clipstate", 1, "id", "u893000345", 7, "obj-2", "playlist~", "preset_content", 1, "loop", 1, 4, "obj-2", "playlist~", "preset_execute", 5, "obj-3", "live.gain~", "float", -29.614173889160156, 5, "obj-10", "toggle", "int", 1, 5, "obj-9", "umenu", "int", 1, 5, "obj-17", "umenu", "int", 0, 5, "obj-16", "umenu", "int", 3, 5, "obj-15", "umenu", "int", 2, 5, "obj-31", "flonum", "float", 15178561526693888.0, 5, "obj-30", "flonum", "float", 11.199999809265137, 5, "obj-33", "live.gain~", "float", -26.788862228393555, 5, "obj-35", "live.gain~", "float", -41.414562225341797, 5, "obj-39", "flonum", "float", 0.337031781673431, 5, "obj-41", "flonum", "float", 1517856206356480.0, 5, "obj-43", "flonum", "float", 0.0, 5, "obj-19", "toggle", "int", 1, 5, "obj-64", "umenu", "int", 3, 5, "obj-63", "umenu", "int", 2, 5, "obj-62", "umenu", "int", 3, 5, "obj-61", "umenu", "int", 1, 5, "obj-89", "flonum", "float", 63.0, 5, "obj-87", "flonum", "float", 1.200000047683716, 5, "obj-83", "live.gain~", "float", -29.543388366699219, 5, "obj-94", "toggle", "int", 1 ]
						}
, 						{
							"number" : 4,
							"data" : [ 5, "obj-2", "playlist~", "preset_count", 1, 7, "obj-2", "playlist~", "preset_clipstate", 1, "filekind", "audiofile", 7, "obj-2", "playlist~", "preset_clipstate", 1, "absolutepath", "jongly.aif", 7, "obj-2", "playlist~", "preset_clipstate", 1, "filename", "jongly.aif", 7, "obj-2", "playlist~", "preset_clipstate", 1, "loop", 1, 8, "obj-2", "playlist~", "preset_clipstate", 1, "selection", 0.0, 1.0, 7, "obj-2", "playlist~", "preset_clipstate", 1, "id", "u893000345", 7, "obj-2", "playlist~", "preset_content", 1, "loop", 1, 4, "obj-2", "playlist~", "preset_execute", 5, "obj-3", "live.gain~", "float", -29.614173889160156, 5, "obj-10", "toggle", "int", 1, 5, "obj-9", "umenu", "int", 1, 5, "obj-17", "umenu", "int", 0, 5, "obj-16", "umenu", "int", 3, 5, "obj-15", "umenu", "int", 2, 5, "obj-31", "flonum", "float", 6699359781519360.0, 5, "obj-30", "flonum", "float", 11.199999809265137, 5, "obj-33", "live.gain~", "float", -26.788862228393555, 5, "obj-35", "live.gain~", "float", -41.414562225341797, 5, "obj-39", "flonum", "float", 0.148755669593811, 5, "obj-41", "flonum", "float", 669935978151936.0, 5, "obj-43", "flonum", "float", 0.0, 5, "obj-19", "toggle", "int", 1, 5, "obj-64", "umenu", "int", 3, 5, "obj-63", "umenu", "int", 2, 5, "obj-62", "umenu", "int", 3, 5, "obj-61", "umenu", "int", 1, 5, "obj-89", "flonum", "float", 63.0, 5, "obj-87", "flonum", "float", 1.200000047683716, 5, "obj-83", "live.gain~", "float", -22.872879028320313, 5, "obj-94", "toggle", "int", 1, 5, "obj-50", "flonum", "float", 0.073931276798248, 5, "obj-45", "flonum", "float", 0.369656383991241, 5, "obj-42", "flonum", "float", 0.200000002980232 ]
						}
 ]
				}

			}
, 			{
				"box" : 				{
					"annotation" : "## Convert video input for use with BEAP modules ##",
					"bgmode" : 1,
					"border" : 0,
					"clickthrough" : 0,
					"enablehscroll" : 0,
					"enablevscroll" : 0,
					"id" : "obj-103",
					"lockeddragscroll" : 0,
					"maxclass" : "bpatcher",
					"name" : "vz.vizzieconvertr.maxpat",
					"numinlets" : 1,
					"numoutlets" : 5,
					"offset" : [ 0.0, 0.0 ],
					"outlettype" : [ "signal", "signal", "signal", "signal", "" ],
					"patching_rect" : [ 776.0, 915.0, 186.0, 108.0 ],
					"varname" : "vizzieconvertr",
					"viewvisibility" : 1
				}

			}
, 			{
				"box" : 				{
					"id" : "obj-100",
					"maxclass" : "jit.pwindow",
					"numinlets" : 1,
					"numoutlets" : 2,
					"outlettype" : [ "jit_matrix", "" ],
					"patching_rect" : [ 411.5, 1296.682926829268354, 112.0, 82.682926829268297 ]
				}

			}
, 			{
				"box" : 				{
					"annotation" : "## Smear a video ##",
					"bgmode" : 1,
					"border" : 0,
					"clickthrough" : 0,
					"enablehscroll" : 0,
					"enablevscroll" : 0,
					"id" : "obj-99",
					"lockeddragscroll" : 0,
					"maxclass" : "bpatcher",
					"name" : "vz.slidr.maxpat",
					"numinlets" : 3,
					"numoutlets" : 1,
					"offset" : [ 0.0, 0.0 ],
					"outlettype" : [ "jit_gl_texture" ],
					"patching_rect" : [ 322.5, 1145.682926829268581, 138.0, 130.0 ],
					"prototypename" : "pixl",
					"varname" : "slidr",
					"viewvisibility" : 1
				}

			}
, 			{
				"box" : 				{
					"id" : "obj-94",
					"maxclass" : "toggle",
					"numinlets" : 1,
					"numoutlets" : 1,
					"outlettype" : [ "int" ],
					"parameter_enable" : 0,
					"patching_rect" : [ 257.0, 964.0, 24.0, 24.0 ]
				}

			}
, 			{
				"box" : 				{
					"id" : "obj-95",
					"maxclass" : "newobj",
					"numinlets" : 2,
					"numoutlets" : 1,
					"outlettype" : [ "bang" ],
					"patching_rect" : [ 257.0, 1024.5, 63.0, 22.0 ],
					"text" : "qmetro 40"
				}

			}
, 			{
				"box" : 				{
					"annotation" : "## A chaotic equation-based VIZZIE data generator ##",
					"bgmode" : 1,
					"border" : 0,
					"clickthrough" : 0,
					"enablehscroll" : 0,
					"enablevscroll" : 0,
					"id" : "obj-92",
					"lockeddragscroll" : 0,
					"maxclass" : "bpatcher",
					"name" : "vz.attractr.maxpat",
					"numinlets" : 2,
					"numoutlets" : 6,
					"offset" : [ 0.0, 0.0 ],
					"outlettype" : [ "", "", "", "", "", "" ],
					"patching_rect" : [ 776.0, 717.682926829268354, 206.0, 186.0 ],
					"prototypename" : "pixl",
					"varname" : "attractr",
					"viewvisibility" : 1
				}

			}
, 			{
				"box" : 				{
					"id" : "obj-82",
					"maxclass" : "ezdac~",
					"numinlets" : 2,
					"numoutlets" : 0,
					"patching_rect" : [ 72.0, 1167.182926829268354, 45.0, 45.0 ]
				}

			}
, 			{
				"box" : 				{
					"id" : "obj-83",
					"lastchannelcount" : 0,
					"maxclass" : "live.gain~",
					"numinlets" : 2,
					"numoutlets" : 5,
					"outlettype" : [ "signal", "signal", "", "float", "list" ],
					"parameter_enable" : 1,
					"patching_rect" : [ 65.0, 1005.5, 48.0, 136.0 ],
					"saved_attribute_attributes" : 					{
						"valueof" : 						{
							"parameter_longname" : "live.gain~[3]",
							"parameter_mmax" : 6.0,
							"parameter_mmin" : -70.0,
							"parameter_shortname" : "live.gain~[1]",
							"parameter_type" : 0,
							"parameter_unitstyle" : 4
						}

					}
,
					"varname" : "live.gain~[3]"
				}

			}
, 			{
				"box" : 				{
					"fontname" : "Arial",
					"fontsize" : 13.0,
					"id" : "obj-85",
					"maxclass" : "newobj",
					"numinlets" : 2,
					"numoutlets" : 1,
					"outlettype" : [ "signal" ],
					"patching_rect" : [ 76.5, 934.0, 53.0, 23.0 ],
					"text" : "*~ 320."
				}

			}
, 			{
				"box" : 				{
					"fontname" : "Arial",
					"fontsize" : 13.0,
					"id" : "obj-86",
					"maxclass" : "newobj",
					"numinlets" : 1,
					"numoutlets" : 1,
					"outlettype" : [ "signal" ],
					"patching_rect" : [ 244.5, 915.0, 50.0, 23.0 ],
					"text" : "sig~ 0."
				}

			}
, 			{
				"box" : 				{
					"fontname" : "Arial",
					"fontsize" : 13.0,
					"format" : 6,
					"id" : "obj-87",
					"maxclass" : "flonum",
					"maximum" : 240.0,
					"minimum" : 0.0,
					"numinlets" : 1,
					"numoutlets" : 2,
					"outlettype" : [ "", "bang" ],
					"parameter_enable" : 0,
					"patching_rect" : [ 244.5, 880.0, 50.0, 23.0 ]
				}

			}
, 			{
				"box" : 				{
					"fontname" : "Arial",
					"fontsize" : 13.0,
					"id" : "obj-88",
					"maxclass" : "newobj",
					"numinlets" : 2,
					"numoutlets" : 1,
					"outlettype" : [ "signal" ],
					"patching_rect" : [ 76.5, 905.0, 70.0, 23.0 ],
					"text" : "phasor~ 3"
				}

			}
, 			{
				"box" : 				{
					"fontname" : "Arial",
					"fontsize" : 13.0,
					"format" : 6,
					"id" : "obj-89",
					"maxclass" : "flonum",
					"numinlets" : 1,
					"numoutlets" : 2,
					"outlettype" : [ "", "bang" ],
					"parameter_enable" : 0,
					"patching_rect" : [ 76.5, 876.0, 50.0, 23.0 ]
				}

			}
, 			{
				"box" : 				{
					"id" : "obj-90",
					"maxclass" : "newobj",
					"numinlets" : 2,
					"numoutlets" : 2,
					"outlettype" : [ "signal", "" ],
					"patching_rect" : [ 76.0, 958.700012000000015, 136.0, 22.0 ],
					"text" : "jit.peek~ newPatchy 2 2"
				}

			}
, 			{
				"box" : 				{
					"id" : "obj-81",
					"maxclass" : "newobj",
					"numinlets" : 1,
					"numoutlets" : 2,
					"outlettype" : [ "jit_matrix", "" ],
					"patching_rect" : [ 750.0, 1296.682926829268354, 211.0, 22.0 ],
					"text" : "jit.matrix newPatchy 4 float32 320 240"
				}

			}
, 			{
				"box" : 				{
					"id" : "obj-80",
					"maxclass" : "jit.pwindow",
					"numinlets" : 1,
					"numoutlets" : 2,
					"outlettype" : [ "jit_matrix", "" ],
					"patching_rect" : [ 591.5, 1194.817073170731646, 112.0, 82.682926829268297 ]
				}

			}
, 			{
				"box" : 				{
					"annotation" : "## Procedurally colorize a video image ##",
					"bgmode" : 1,
					"border" : 0,
					"clickthrough" : 0,
					"enablehscroll" : 0,
					"enablevscroll" : 0,
					"id" : "obj-79",
					"lockeddragscroll" : 0,
					"maxclass" : "bpatcher",
					"name" : "vz.colorizr.maxpat",
					"numinlets" : 4,
					"numoutlets" : 1,
					"offset" : [ 0.0, 0.0 ],
					"outlettype" : [ "jit_gl_texture" ],
					"patching_rect" : [ 591.5, 1033.0, 138.0, 130.0 ],
					"prototypename" : "pixl",
					"varname" : "freezr",
					"viewvisibility" : 1
				}

			}
, 			{
				"box" : 				{
					"annotation" : "## Convert BEAP module output (control voltages/MIDI) to VIZZIE data ##",
					"bgmode" : 1,
					"border" : 0,
					"clickthrough" : 0,
					"enablehscroll" : 0,
					"enablevscroll" : 0,
					"id" : "obj-78",
					"lockeddragscroll" : 0,
					"maxclass" : "bpatcher",
					"name" : "vz.beapconvertr.maxpat",
					"numinlets" : 2,
					"numoutlets" : 2,
					"offset" : [ 0.0, 0.0 ],
					"outlettype" : [ "", "" ],
					"patching_rect" : [ 783.0, 1171.682926829268354, 108.0, 78.0 ],
					"prototypename" : "pixl",
					"varname" : "beapconvertr",
					"viewvisibility" : 1
				}

			}
, 			{
				"box" : 				{
					"bgmode" : 0,
					"border" : 0,
					"clickthrough" : 0,
					"enablehscroll" : 0,
					"enablevscroll" : 0,
					"extract" : 1,
					"id" : "obj-77",
					"lockeddragscroll" : 0,
					"maxclass" : "bpatcher",
					"name" : "bp.CV LFO.maxpat",
					"numinlets" : 2,
					"numoutlets" : 2,
					"offset" : [ 0.0, 0.0 ],
					"outlettype" : [ "signal", "signal" ],
					"patching_rect" : [ 776.0, 1040.882938829268369, 214.0, 116.0 ],
					"varname" : "bp.CV LFO",
					"viewvisibility" : 1
				}

			}
, 			{
				"box" : 				{
					"id" : "obj-70",
					"maxclass" : "newobj",
					"numinlets" : 1,
					"numoutlets" : 2,
					"outlettype" : [ "jit_matrix", "" ],
					"patching_rect" : [ 745.0, 648.682926829268354, 141.0, 22.0 ],
					"text" : "jit.brass @mask 10 4 0 3"
				}

			}
, 			{
				"box" : 				{
					"id" : "obj-67",
					"maxclass" : "jit.pwindow",
					"numinlets" : 1,
					"numoutlets" : 2,
					"outlettype" : [ "jit_matrix", "" ],
					"patching_rect" : [ 922.599999999999909, 581.0, 112.0, 82.682926829268297 ]
				}

			}
, 			{
				"box" : 				{
					"fontname" : "Arial",
					"fontsize" : 13.0,
					"id" : "obj-60",
					"maxclass" : "newobj",
					"numinlets" : 1,
					"numoutlets" : 1,
					"outlettype" : [ "" ],
					"patching_rect" : [ 301.0, 785.200012000000015, 76.0, 23.0 ],
					"text" : "prepend op"
				}

			}
, 			{
				"box" : 				{
					"fontface" : 0,
					"fontname" : "Arial",
					"fontsize" : 13.0,
					"id" : "obj-61",
					"items" : [ "pass", ",", "*", ",", "/", ",", "+", ",", "-", ",", "+m", ",", "-m", ",", "%", ",", "min", ",", "max", ",", "abs", ",", "avg", ",", "absdiff", ",", "!pass", ",", "!/", ",", "!-", ",", "!%", ",", "&", ",", "|", ",", "^", ",", "~", ",", ">>", ",", "<<", ",", "&&", ",", "||", ",", "!", ",", ">", ",", "<", ",", ">=", ",", "<=", ",", "==", ",", "!=", ",", ">p", ",", "<p", ",", ">=p", ",", "<=p", ",", "==p", ",", "!=p", ",", "sin", ",", "cos", ",", "tan", ",", "asin", ",", "acos", ",", "atan", ",", "atan2", ",", "sinh", ",", "cosh", ",", "tanh", ",", "asinh", ",", "acosh", ",", "atanh", ",", "exp", ",", "exp2", ",", "ln", ",", "log2", ",", "log10", ",", "hypot", ",", "pow", ",", "sqrt", ",", "ceil", ",", "floor", ",", "round", ",", "trunc", ",", "ignore" ],
					"maxclass" : "umenu",
					"numinlets" : 1,
					"numoutlets" : 3,
					"outlettype" : [ "int", "", "" ],
					"parameter_enable" : 0,
					"patching_rect" : [ 508.5, 731.200012000000015, 60.0, 23.0 ]
				}

			}
, 			{
				"box" : 				{
					"fontface" : 0,
					"fontname" : "Arial",
					"fontsize" : 13.0,
					"id" : "obj-62",
					"items" : [ "pass", ",", "*", ",", "/", ",", "+", ",", "-", ",", "+m", ",", "-m", ",", "%", ",", "min", ",", "max", ",", "abs", ",", "avg", ",", "absdiff", ",", "!pass", ",", "!/", ",", "!-", ",", "!%", ",", "&", ",", "|", ",", "^", ",", "~", ",", ">>", ",", "<<", ",", "&&", ",", "||", ",", "!", ",", ">", ",", "<", ",", ">=", ",", "<=", ",", "==", ",", "!=", ",", ">p", ",", "<p", ",", ">=p", ",", "<=p", ",", "==p", ",", "!=p", ",", "sin", ",", "cos", ",", "tan", ",", "asin", ",", "acos", ",", "atan", ",", "atan2", ",", "sinh", ",", "cosh", ",", "tanh", ",", "asinh", ",", "acosh", ",", "atanh", ",", "exp", ",", "exp2", ",", "ln", ",", "log2", ",", "log10", ",", "hypot", ",", "pow", ",", "sqrt", ",", "ceil", ",", "floor", ",", "round", ",", "trunc", ",", "ignore" ],
					"maxclass" : "umenu",
					"numinlets" : 1,
					"numoutlets" : 3,
					"outlettype" : [ "int", "", "" ],
					"parameter_enable" : 0,
					"patching_rect" : [ 432.5, 731.200012000000015, 60.0, 23.0 ]
				}

			}
, 			{
				"box" : 				{
					"fontface" : 0,
					"fontname" : "Arial",
					"fontsize" : 13.0,
					"id" : "obj-63",
					"items" : [ "pass", ",", "*", ",", "/", ",", "+", ",", "-", ",", "+m", ",", "-m", ",", "%", ",", "min", ",", "max", ",", "abs", ",", "avg", ",", "absdiff", ",", "!pass", ",", "!/", ",", "!-", ",", "!%", ",", "&", ",", "|", ",", "^", ",", "~", ",", ">>", ",", "<<", ",", "&&", ",", "||", ",", "!", ",", ">", ",", "<", ",", ">=", ",", "<=", ",", "==", ",", "!=", ",", ">p", ",", "<p", ",", ">=p", ",", "<=p", ",", "==p", ",", "!=p", ",", "sin", ",", "cos", ",", "tan", ",", "asin", ",", "acos", ",", "atan", ",", "atan2", ",", "sinh", ",", "cosh", ",", "tanh", ",", "asinh", ",", "acosh", ",", "atanh", ",", "exp", ",", "exp2", ",", "ln", ",", "log2", ",", "log10", ",", "hypot", ",", "pow", ",", "sqrt", ",", "ceil", ",", "floor", ",", "round", ",", "trunc", ",", "ignore" ],
					"maxclass" : "umenu",
					"numinlets" : 1,
					"numoutlets" : 3,
					"outlettype" : [ "int", "", "" ],
					"parameter_enable" : 0,
					"patching_rect" : [ 356.5, 731.200012000000015, 60.0, 23.0 ]
				}

			}
, 			{
				"box" : 				{
					"fontface" : 0,
					"fontname" : "Arial",
					"fontsize" : 13.0,
					"id" : "obj-64",
					"items" : [ "pass", ",", "*", ",", "/", ",", "+", ",", "-", ",", "+m", ",", "-m", ",", "%", ",", "min", ",", "max", ",", "abs", ",", "avg", ",", "absdiff", ",", "!pass", ",", "!/", ",", "!-", ",", "!%", ",", "&", ",", "|", ",", "^", ",", "~", ",", ">>", ",", "<<", ",", "&&", ",", "||", ",", "!", ",", ">", ",", "<", ",", ">=", ",", "<=", ",", "==", ",", "!=", ",", ">p", ",", "<p", ",", ">=p", ",", "<=p", ",", "==p", ",", "!=p", ",", "sin", ",", "cos", ",", "tan", ",", "asin", ",", "acos", ",", "atan", ",", "atan2", ",", "sinh", ",", "cosh", ",", "tanh", ",", "asinh", ",", "acosh", ",", "atanh", ",", "exp", ",", "exp2", ",", "ln", ",", "log2", ",", "log10", ",", "hypot", ",", "pow", ",", "sqrt", ",", "ceil", ",", "floor", ",", "round", ",", "trunc", ",", "ignore" ],
					"maxclass" : "umenu",
					"numinlets" : 1,
					"numoutlets" : 3,
					"outlettype" : [ "int", "", "" ],
					"parameter_enable" : 0,
					"patching_rect" : [ 280.5, 731.200012000000015, 60.0, 23.0 ]
				}

			}
, 			{
				"box" : 				{
					"fontname" : "Arial",
					"fontsize" : 13.0,
					"id" : "obj-65",
					"maxclass" : "newobj",
					"numinlets" : 4,
					"numoutlets" : 1,
					"outlettype" : [ "" ],
					"patching_rect" : [ 301.0, 760.0, 247.0, 23.0 ],
					"text" : "pak * * * *"
				}

			}
, 			{
				"box" : 				{
					"id" : "obj-53",
					"maxclass" : "jit.pwindow",
					"numinlets" : 1,
					"numoutlets" : 2,
					"outlettype" : [ "jit_matrix", "" ],
					"patching_rect" : [ 586.5, 760.0, 112.0, 82.682926829268297 ]
				}

			}
, 			{
				"box" : 				{
					"id" : "obj-52",
					"maxclass" : "newobj",
					"numinlets" : 2,
					"numoutlets" : 2,
					"outlettype" : [ "jit_matrix", "" ],
					"patching_rect" : [ 603.0, 717.682926829268354, 79.0, 22.0 ],
					"text" : "jit.op"
				}

			}
, 			{
				"box" : 				{
					"id" : "obj-12",
					"maxclass" : "newobj",
					"numinlets" : 1,
					"numoutlets" : 2,
					"outlettype" : [ "jit_matrix", "" ],
					"patching_rect" : [ 707.0, 581.0, 205.0, 22.0 ],
					"text" : "jit.matrix CatchyMore 4 char 160 240"
				}

			}
, 			{
				"box" : 				{
					"id" : "obj-19",
					"maxclass" : "toggle",
					"numinlets" : 1,
					"numoutlets" : 1,
					"outlettype" : [ "int" ],
					"parameter_enable" : 0,
					"patching_rect" : [ 739.0, 414.5, 24.0, 24.0 ]
				}

			}
, 			{
				"box" : 				{
					"id" : "obj-23",
					"maxclass" : "newobj",
					"numinlets" : 2,
					"numoutlets" : 1,
					"outlettype" : [ "bang" ],
					"patching_rect" : [ 739.0, 475.0, 63.0, 22.0 ],
					"text" : "qmetro 40"
				}

			}
, 			{
				"box" : 				{
					"id" : "obj-37",
					"maxclass" : "newobj",
					"numinlets" : 1,
					"numoutlets" : 2,
					"outlettype" : [ "jit_matrix", "" ],
					"patching_rect" : [ 703.5, 539.0, 112.0, 22.0 ],
					"text" : "jit.catch~ @mode 3"
				}

			}
, 			{
				"box" : 				{
					"id" : "obj-48",
					"maxclass" : "newobj",
					"numinlets" : 2,
					"numoutlets" : 1,
					"outlettype" : [ "float" ],
					"patching_rect" : [ 152.0, 354.0, 33.0, 22.0 ],
					"text" : "* 10."
				}

			}
, 			{
				"box" : 				{
					"id" : "obj-47",
					"maxclass" : "newobj",
					"numinlets" : 2,
					"numoutlets" : 1,
					"outlettype" : [ "float" ],
					"patching_rect" : [ 144.5, 382.0, 36.0, 22.0 ],
					"text" : "+ 20."
				}

			}
, 			{
				"box" : 				{
					"id" : "obj-46",
					"maxclass" : "message",
					"numinlets" : 2,
					"numoutlets" : 1,
					"outlettype" : [ "" ],
					"patching_rect" : [ 86.599999999999994, 393.841463414634177, 52.0, 22.0 ],
					"text" : "theta $1"
				}

			}
, 			{
				"box" : 				{
					"id" : "obj-44",
					"maxclass" : "newobj",
					"numinlets" : 1,
					"numoutlets" : 2,
					"outlettype" : [ "jit_matrix", "" ],
					"patching_rect" : [ 368.0, 406.0, 41.0, 22.0 ],
					"text" : "jit.rota"
				}

			}
, 			{
				"box" : 				{
					"format" : 6,
					"id" : "obj-43",
					"maxclass" : "flonum",
					"numinlets" : 1,
					"numoutlets" : 2,
					"outlettype" : [ "", "bang" ],
					"parameter_enable" : 0,
					"patching_rect" : [ 116.0, 238.5, 50.0, 22.0 ]
				}

			}
, 			{
				"box" : 				{
					"format" : 6,
					"id" : "obj-41",
					"maxclass" : "flonum",
					"numinlets" : 1,
					"numoutlets" : 2,
					"outlettype" : [ "", "bang" ],
					"parameter_enable" : 0,
					"patching_rect" : [ 87.599999999999994, 322.158536585365823, 50.0, 22.0 ]
				}

			}
, 			{
				"box" : 				{
					"id" : "obj-40",
					"maxclass" : "newobj",
					"numinlets" : 6,
					"numoutlets" : 1,
					"outlettype" : [ "" ],
					"patching_rect" : [ 87.599999999999994, 285.0, 90.0, 22.0 ],
					"text" : "scale 0. 1. 0. 1."
				}

			}
, 			{
				"box" : 				{
					"format" : 6,
					"id" : "obj-39",
					"maxclass" : "flonum",
					"numinlets" : 1,
					"numoutlets" : 2,
					"outlettype" : [ "", "bang" ],
					"parameter_enable" : 0,
					"patching_rect" : [ 88.5, 197.0, 50.0, 22.0 ]
				}

			}
, 			{
				"box" : 				{
					"id" : "obj-36",
					"maxclass" : "newobj",
					"numinlets" : 1,
					"numoutlets" : 1,
					"outlettype" : [ "float" ],
					"patching_rect" : [ 88.5, 159.0, 35.0, 22.0 ],
					"text" : "avg~"
				}

			}
, 			{
				"box" : 				{
					"id" : "obj-35",
					"lastchannelcount" : 0,
					"maxclass" : "live.gain~",
					"numinlets" : 2,
					"numoutlets" : 5,
					"outlettype" : [ "signal", "signal", "", "float", "list" ],
					"parameter_enable" : 1,
					"patching_rect" : [ 566.5, 475.0, 48.0, 136.0 ],
					"saved_attribute_attributes" : 					{
						"valueof" : 						{
							"parameter_longname" : "live.gain~[2]",
							"parameter_mmax" : 6.0,
							"parameter_mmin" : -70.0,
							"parameter_shortname" : "live.gain~[1]",
							"parameter_type" : 0,
							"parameter_unitstyle" : 4
						}

					}
,
					"varname" : "live.gain~[2]"
				}

			}
, 			{
				"box" : 				{
					"id" : "obj-34",
					"maxclass" : "ezdac~",
					"numinlets" : 2,
					"numoutlets" : 0,
					"patching_rect" : [ 529.0, 618.682926829268354, 45.0, 45.0 ]
				}

			}
, 			{
				"box" : 				{
					"id" : "obj-33",
					"lastchannelcount" : 0,
					"maxclass" : "live.gain~",
					"numinlets" : 2,
					"numoutlets" : 5,
					"outlettype" : [ "signal", "signal", "", "float", "list" ],
					"parameter_enable" : 1,
					"patching_rect" : [ 496.0, 475.0, 48.0, 136.0 ],
					"saved_attribute_attributes" : 					{
						"valueof" : 						{
							"parameter_longname" : "live.gain~[1]",
							"parameter_mmax" : 6.0,
							"parameter_mmin" : -70.0,
							"parameter_shortname" : "live.gain~[1]",
							"parameter_type" : 0,
							"parameter_unitstyle" : 4
						}

					}
,
					"varname" : "live.gain~[1]"
				}

			}
, 			{
				"box" : 				{
					"id" : "obj-32",
					"maxclass" : "newobj",
					"numinlets" : 1,
					"numoutlets" : 2,
					"outlettype" : [ "jit_matrix", "" ],
					"patching_rect" : [ 163.0, 581.0, 189.0, 22.0 ],
					"text" : "jit.matrix Patchy 4 float32 320 240"
				}

			}
, 			{
				"box" : 				{
					"bubble" : 1,
					"fontname" : "Arial",
					"fontsize" : 13.0,
					"id" : "obj-27",
					"maxclass" : "comment",
					"numinlets" : 1,
					"numoutlets" : 0,
					"patching_rect" : [ 550.0, 310.5, 102.0, 25.0 ],
					"text" : "X scrub rate"
				}

			}
, 			{
				"box" : 				{
					"fontname" : "Arial",
					"fontsize" : 13.0,
					"id" : "obj-28",
					"maxclass" : "newobj",
					"numinlets" : 2,
					"numoutlets" : 1,
					"outlettype" : [ "signal" ],
					"patching_rect" : [ 500.0, 368.5, 53.0, 23.0 ],
					"text" : "*~ 320."
				}

			}
, 			{
				"box" : 				{
					"fontname" : "Arial",
					"fontsize" : 13.0,
					"id" : "obj-29",
					"maxclass" : "newobj",
					"numinlets" : 1,
					"numoutlets" : 1,
					"outlettype" : [ "signal" ],
					"patching_rect" : [ 668.0, 349.5, 50.0, 23.0 ],
					"text" : "sig~ 0."
				}

			}
, 			{
				"box" : 				{
					"fontname" : "Arial",
					"fontsize" : 13.0,
					"format" : 6,
					"id" : "obj-30",
					"maxclass" : "flonum",
					"maximum" : 240.0,
					"minimum" : 0.0,
					"numinlets" : 1,
					"numoutlets" : 2,
					"outlettype" : [ "", "bang" ],
					"parameter_enable" : 0,
					"patching_rect" : [ 668.0, 314.5, 50.0, 23.0 ]
				}

			}
, 			{
				"box" : 				{
					"fontname" : "Arial",
					"fontsize" : 13.0,
					"id" : "obj-11",
					"maxclass" : "newobj",
					"numinlets" : 2,
					"numoutlets" : 1,
					"outlettype" : [ "signal" ],
					"patching_rect" : [ 500.0, 339.5, 70.0, 23.0 ],
					"text" : "phasor~ 3"
				}

			}
, 			{
				"box" : 				{
					"fontname" : "Arial",
					"fontsize" : 13.0,
					"format" : 6,
					"id" : "obj-31",
					"maxclass" : "flonum",
					"numinlets" : 1,
					"numoutlets" : 2,
					"outlettype" : [ "", "bang" ],
					"parameter_enable" : 0,
					"patching_rect" : [ 500.0, 310.5, 50.0, 23.0 ]
				}

			}
, 			{
				"box" : 				{
					"id" : "obj-26",
					"maxclass" : "newobj",
					"numinlets" : 2,
					"numoutlets" : 2,
					"outlettype" : [ "signal", "" ],
					"patching_rect" : [ 529.0, 435.200012000000015, 114.0, 22.0 ],
					"text" : "jit.peek~ Patchy 2 2"
				}

			}
, 			{
				"box" : 				{
					"id" : "obj-25",
					"maxclass" : "playbar",
					"numinlets" : 1,
					"numoutlets" : 2,
					"outlettype" : [ "", "int" ],
					"patching_rect" : [ 430.0, 58.5, 210.0, 28.0 ]
				}

			}
, 			{
				"box" : 				{
					"id" : "obj-24",
					"maxclass" : "newobj",
					"numinlets" : 1,
					"numoutlets" : 4,
					"outlettype" : [ "signal", "signal", "jit_matrix", "" ],
					"patching_rect" : [ 430.0, 118.0, 200.0, 22.0 ],
					"text" : "jit.movie~ @moviefile crashtest.mov"
				}

			}
, 			{
				"box" : 				{
					"id" : "obj-22",
					"maxclass" : "newobj",
					"numinlets" : 1,
					"numoutlets" : 2,
					"outlettype" : [ "jit_matrix", "" ],
					"patching_rect" : [ 248.5, 268.0, 190.0, 22.0 ],
					"text" : "jit.matrix Catchy 4 float32 320 240"
				}

			}
, 			{
				"box" : 				{
					"id" : "obj-21",
					"maxclass" : "jit.pwindow",
					"numinlets" : 1,
					"numoutlets" : 2,
					"outlettype" : [ "jit_matrix", "" ],
					"patching_rect" : [ 89.0, 625.0, 112.0, 82.682926829268297 ]
				}

			}
, 			{
				"box" : 				{
					"id" : "obj-20",
					"maxclass" : "comment",
					"numinlets" : 1,
					"numoutlets" : 0,
					"patching_rect" : [ 47.0, 441.0, 150.0, 20.0 ],
					"text" : "help for jit.op (3rd tab)"
				}

			}
, 			{
				"box" : 				{
					"fontname" : "Arial",
					"fontsize" : 13.0,
					"id" : "obj-1",
					"maxclass" : "newobj",
					"numinlets" : 1,
					"numoutlets" : 1,
					"outlettype" : [ "" ],
					"patching_rect" : [ 41.0, 515.200012000000015, 76.0, 23.0 ],
					"text" : "prepend op"
				}

			}
, 			{
				"box" : 				{
					"fontface" : 0,
					"fontname" : "Arial",
					"fontsize" : 13.0,
					"id" : "obj-15",
					"items" : [ "pass", ",", "*", ",", "/", ",", "+", ",", "-", ",", "+m", ",", "-m", ",", "%", ",", "min", ",", "max", ",", "abs", ",", "avg", ",", "absdiff", ",", "!pass", ",", "!/", ",", "!-", ",", "!%", ",", "&", ",", "|", ",", "^", ",", "~", ",", ">>", ",", "<<", ",", "&&", ",", "||", ",", "!", ",", ">", ",", "<", ",", ">=", ",", "<=", ",", "==", ",", "!=", ",", ">p", ",", "<p", ",", ">=p", ",", "<=p", ",", "==p", ",", "!=p", ",", "sin", ",", "cos", ",", "tan", ",", "asin", ",", "acos", ",", "atan", ",", "atan2", ",", "sinh", ",", "cosh", ",", "tanh", ",", "asinh", ",", "acosh", ",", "atanh", ",", "exp", ",", "exp2", ",", "ln", ",", "log2", ",", "log10", ",", "hypot", ",", "pow", ",", "sqrt", ",", "ceil", ",", "floor", ",", "round", ",", "trunc", ",", "ignore" ],
					"maxclass" : "umenu",
					"numinlets" : 1,
					"numoutlets" : 3,
					"outlettype" : [ "int", "", "" ],
					"parameter_enable" : 0,
					"patching_rect" : [ 248.5, 461.200012000000015, 60.0, 23.0 ]
				}

			}
, 			{
				"box" : 				{
					"fontface" : 0,
					"fontname" : "Arial",
					"fontsize" : 13.0,
					"id" : "obj-16",
					"items" : [ "pass", ",", "*", ",", "/", ",", "+", ",", "-", ",", "+m", ",", "-m", ",", "%", ",", "min", ",", "max", ",", "abs", ",", "avg", ",", "absdiff", ",", "!pass", ",", "!/", ",", "!-", ",", "!%", ",", "&", ",", "|", ",", "^", ",", "~", ",", ">>", ",", "<<", ",", "&&", ",", "||", ",", "!", ",", ">", ",", "<", ",", ">=", ",", "<=", ",", "==", ",", "!=", ",", ">p", ",", "<p", ",", ">=p", ",", "<=p", ",", "==p", ",", "!=p", ",", "sin", ",", "cos", ",", "tan", ",", "asin", ",", "acos", ",", "atan", ",", "atan2", ",", "sinh", ",", "cosh", ",", "tanh", ",", "asinh", ",", "acosh", ",", "atanh", ",", "exp", ",", "exp2", ",", "ln", ",", "log2", ",", "log10", ",", "hypot", ",", "pow", ",", "sqrt", ",", "ceil", ",", "floor", ",", "round", ",", "trunc", ",", "ignore" ],
					"maxclass" : "umenu",
					"numinlets" : 1,
					"numoutlets" : 3,
					"outlettype" : [ "int", "", "" ],
					"parameter_enable" : 0,
					"patching_rect" : [ 172.5, 461.200012000000015, 60.0, 23.0 ]
				}

			}
, 			{
				"box" : 				{
					"fontface" : 0,
					"fontname" : "Arial",
					"fontsize" : 13.0,
					"id" : "obj-17",
					"items" : [ "pass", ",", "*", ",", "/", ",", "+", ",", "-", ",", "+m", ",", "-m", ",", "%", ",", "min", ",", "max", ",", "abs", ",", "avg", ",", "absdiff", ",", "!pass", ",", "!/", ",", "!-", ",", "!%", ",", "&", ",", "|", ",", "^", ",", "~", ",", ">>", ",", "<<", ",", "&&", ",", "||", ",", "!", ",", ">", ",", "<", ",", ">=", ",", "<=", ",", "==", ",", "!=", ",", ">p", ",", "<p", ",", ">=p", ",", "<=p", ",", "==p", ",", "!=p", ",", "sin", ",", "cos", ",", "tan", ",", "asin", ",", "acos", ",", "atan", ",", "atan2", ",", "sinh", ",", "cosh", ",", "tanh", ",", "asinh", ",", "acosh", ",", "atanh", ",", "exp", ",", "exp2", ",", "ln", ",", "log2", ",", "log10", ",", "hypot", ",", "pow", ",", "sqrt", ",", "ceil", ",", "floor", ",", "round", ",", "trunc", ",", "ignore" ],
					"maxclass" : "umenu",
					"numinlets" : 1,
					"numoutlets" : 3,
					"outlettype" : [ "int", "", "" ],
					"parameter_enable" : 0,
					"patching_rect" : [ 96.5, 461.200012000000015, 60.0, 23.0 ]
				}

			}
, 			{
				"box" : 				{
					"fontface" : 0,
					"fontname" : "Arial",
					"fontsize" : 13.0,
					"id" : "obj-9",
					"items" : [ "pass", ",", "*", ",", "/", ",", "+", ",", "-", ",", "+m", ",", "-m", ",", "%", ",", "min", ",", "max", ",", "abs", ",", "avg", ",", "absdiff", ",", "!pass", ",", "!/", ",", "!-", ",", "!%", ",", "&", ",", "|", ",", "^", ",", "~", ",", ">>", ",", "<<", ",", "&&", ",", "||", ",", "!", ",", ">", ",", "<", ",", ">=", ",", "<=", ",", "==", ",", "!=", ",", ">p", ",", "<p", ",", ">=p", ",", "<=p", ",", "==p", ",", "!=p", ",", "sin", ",", "cos", ",", "tan", ",", "asin", ",", "acos", ",", "atan", ",", "atan2", ",", "sinh", ",", "cosh", ",", "tanh", ",", "asinh", ",", "acosh", ",", "atanh", ",", "exp", ",", "exp2", ",", "ln", ",", "log2", ",", "log10", ",", "hypot", ",", "pow", ",", "sqrt", ",", "ceil", ",", "floor", ",", "round", ",", "trunc", ",", "ignore" ],
					"maxclass" : "umenu",
					"numinlets" : 1,
					"numoutlets" : 3,
					"outlettype" : [ "int", "", "" ],
					"parameter_enable" : 0,
					"patching_rect" : [ 20.5, 461.200012000000015, 60.0, 23.0 ]
				}

			}
, 			{
				"box" : 				{
					"fontname" : "Arial",
					"fontsize" : 13.0,
					"id" : "obj-18",
					"maxclass" : "newobj",
					"numinlets" : 4,
					"numoutlets" : 1,
					"outlettype" : [ "" ],
					"patching_rect" : [ 41.0, 490.0, 247.0, 23.0 ],
					"text" : "pak * * * *"
				}

			}
, 			{
				"box" : 				{
					"id" : "obj-14",
					"maxclass" : "newobj",
					"numinlets" : 2,
					"numoutlets" : 2,
					"outlettype" : [ "jit_matrix", "" ],
					"patching_rect" : [ 295.0, 539.0, 79.0, 22.0 ],
					"text" : "jit.op"
				}

			}
, 			{
				"box" : 				{
					"id" : "obj-13",
					"maxclass" : "jit.pwindow",
					"numinlets" : 1,
					"numoutlets" : 2,
					"outlettype" : [ "jit_matrix", "" ],
					"patching_rect" : [ 582.0, 197.0, 112.0, 82.682926829268297 ]
				}

			}
, 			{
				"box" : 				{
					"id" : "obj-10",
					"maxclass" : "toggle",
					"numinlets" : 1,
					"numoutlets" : 1,
					"outlettype" : [ "int" ],
					"parameter_enable" : 0,
					"patching_rect" : [ 240.0, 57.5, 24.0, 24.0 ]
				}

			}
, 			{
				"box" : 				{
					"id" : "obj-8",
					"maxclass" : "newobj",
					"numinlets" : 2,
					"numoutlets" : 1,
					"outlettype" : [ "bang" ],
					"patching_rect" : [ 240.0, 118.0, 63.0, 22.0 ],
					"text" : "qmetro 40"
				}

			}
, 			{
				"box" : 				{
					"id" : "obj-7",
					"maxclass" : "jit.pwindow",
					"numinlets" : 1,
					"numoutlets" : 2,
					"outlettype" : [ "jit_matrix", "" ],
					"patching_rect" : [ 227.5, 304.5, 112.0, 82.682926829268297 ]
				}

			}
, 			{
				"box" : 				{
					"attr" : "mode",
					"id" : "obj-6",
					"maxclass" : "attrui",
					"numinlets" : 1,
					"numoutlets" : 1,
					"outlettype" : [ "" ],
					"patching_rect" : [ 269.0, 169.0, 150.0, 22.0 ]
				}

			}
, 			{
				"box" : 				{
					"id" : "obj-5",
					"maxclass" : "newobj",
					"numinlets" : 1,
					"numoutlets" : 2,
					"outlettype" : [ "jit_matrix", "" ],
					"patching_rect" : [ 240.0, 227.0, 112.0, 22.0 ],
					"text" : "jit.catch~ @mode 3"
				}

			}
, 			{
				"box" : 				{
					"id" : "obj-4",
					"maxclass" : "ezdac~",
					"numinlets" : 2,
					"numoutlets" : 0,
					"patching_rect" : [ 13.5, 294.5, 45.0, 45.0 ]
				}

			}
, 			{
				"box" : 				{
					"id" : "obj-3",
					"lastchannelcount" : 0,
					"maxclass" : "live.gain~",
					"numinlets" : 2,
					"numoutlets" : 5,
					"outlettype" : [ "signal", "signal", "", "float", "list" ],
					"parameter_enable" : 1,
					"patching_rect" : [ 13.5, 124.5, 48.0, 136.0 ],
					"saved_attribute_attributes" : 					{
						"valueof" : 						{
							"parameter_longname" : "live.gain~",
							"parameter_mmax" : 6.0,
							"parameter_mmin" : -70.0,
							"parameter_shortname" : "live.gain~",
							"parameter_type" : 0,
							"parameter_unitstyle" : 4
						}

					}
,
					"varname" : "live.gain~"
				}

			}
, 			{
				"box" : 				{
					"basictuning" : 440,
					"data" : 					{
						"clips" : [ 							{
								"absolutepath" : "jongly.aif",
								"filename" : "jongly.aif",
								"filekind" : "audiofile",
								"id" : "u893000345",
								"selection" : [ 0.0, 1.0 ],
								"loop" : 1,
								"content_state" : 								{
									"loop" : 1
								}

							}
 ]
					}
,
					"followglobaltempo" : 0,
					"formantcorrection" : 0,
					"id" : "obj-2",
					"maxclass" : "playlist~",
					"mode" : "basic",
					"numinlets" : 1,
					"numoutlets" : 5,
					"originallength" : [ 0.0, "ticks" ],
					"originaltempo" : 120.0,
					"outlettype" : [ "signal", "signal", "signal", "", "dictionary" ],
					"parameter_enable" : 0,
					"patching_rect" : [ 13.5, 58.5, 150.0, 30.0 ],
					"pitchcorrection" : 0,
					"quality" : "basic",
					"timestretch" : [ 0 ]
				}

			}
 ],
		"lines" : [ 			{
				"patchline" : 				{
					"destination" : [ "obj-14", 0 ],
					"source" : [ "obj-1", 0 ]
				}

			}
, 			{
				"patchline" : 				{
					"destination" : [ "obj-8", 0 ],
					"source" : [ "obj-10", 0 ]
				}

			}
, 			{
				"patchline" : 				{
					"destination" : [ "obj-77", 0 ],
					"source" : [ "obj-103", 2 ]
				}

			}
, 			{
				"patchline" : 				{
					"destination" : [ "obj-28", 0 ],
					"source" : [ "obj-11", 0 ]
				}

			}
, 			{
				"patchline" : 				{
					"destination" : [ "obj-70", 0 ],
					"source" : [ "obj-12", 0 ]
				}

			}
, 			{
				"patchline" : 				{
					"destination" : [ "obj-21", 0 ],
					"order" : 1,
					"source" : [ "obj-14", 0 ]
				}

			}
, 			{
				"patchline" : 				{
					"destination" : [ "obj-32", 0 ],
					"order" : 0,
					"source" : [ "obj-14", 0 ]
				}

			}
, 			{
				"patchline" : 				{
					"destination" : [ "obj-18", 3 ],
					"source" : [ "obj-15", 1 ]
				}

			}
, 			{
				"patchline" : 				{
					"destination" : [ "obj-18", 2 ],
					"source" : [ "obj-16", 1 ]
				}

			}
, 			{
				"patchline" : 				{
					"destination" : [ "obj-18", 1 ],
					"source" : [ "obj-17", 1 ]
				}

			}
, 			{
				"patchline" : 				{
					"destination" : [ "obj-1", 0 ],
					"source" : [ "obj-18", 0 ]
				}

			}
, 			{
				"patchline" : 				{
					"destination" : [ "obj-23", 0 ],
					"source" : [ "obj-19", 0 ]
				}

			}
, 			{
				"patchline" : 				{
					"destination" : [ "obj-3", 1 ],
					"order" : 2,
					"source" : [ "obj-2", 1 ]
				}

			}
, 			{
				"patchline" : 				{
					"destination" : [ "obj-3", 0 ],
					"order" : 2,
					"source" : [ "obj-2", 0 ]
				}

			}
, 			{
				"patchline" : 				{
					"destination" : [ "obj-36", 0 ],
					"order" : 1,
					"source" : [ "obj-2", 1 ]
				}

			}
, 			{
				"patchline" : 				{
					"destination" : [ "obj-36", 0 ],
					"order" : 1,
					"source" : [ "obj-2", 0 ]
				}

			}
, 			{
				"patchline" : 				{
					"destination" : [ "obj-5", 0 ],
					"order" : 0,
					"source" : [ "obj-2", 1 ]
				}

			}
, 			{
				"patchline" : 				{
					"destination" : [ "obj-5", 0 ],
					"order" : 0,
					"source" : [ "obj-2", 0 ]
				}

			}
, 			{
				"patchline" : 				{
					"destination" : [ "obj-52", 0 ],
					"source" : [ "obj-21", 0 ]
				}

			}
, 			{
				"patchline" : 				{
					"destination" : [ "obj-14", 0 ],
					"source" : [ "obj-22", 0 ]
				}

			}
, 			{
				"patchline" : 				{
					"destination" : [ "obj-37", 0 ],
					"source" : [ "obj-23", 0 ]
				}

			}
, 			{
				"patchline" : 				{
					"destination" : [ "obj-13", 0 ],
					"order" : 0,
					"source" : [ "obj-24", 2 ]
				}

			}
, 			{
				"patchline" : 				{
					"destination" : [ "obj-35", 1 ],
					"source" : [ "obj-24", 1 ]
				}

			}
, 			{
				"patchline" : 				{
					"destination" : [ "obj-35", 0 ],
					"source" : [ "obj-24", 0 ]
				}

			}
, 			{
				"patchline" : 				{
					"destination" : [ "obj-44", 0 ],
					"order" : 1,
					"source" : [ "obj-24", 2 ]
				}

			}
, 			{
				"patchline" : 				{
					"destination" : [ "obj-24", 0 ],
					"source" : [ "obj-25", 0 ]
				}

			}
, 			{
				"patchline" : 				{
					"destination" : [ "obj-33", 1 ],
					"order" : 0,
					"source" : [ "obj-26", 0 ]
				}

			}
, 			{
				"patchline" : 				{
					"destination" : [ "obj-33", 0 ],
					"order" : 1,
					"source" : [ "obj-26", 0 ]
				}

			}
, 			{
				"patchline" : 				{
					"destination" : [ "obj-26", 0 ],
					"source" : [ "obj-28", 0 ]
				}

			}
, 			{
				"patchline" : 				{
					"destination" : [ "obj-26", 1 ],
					"source" : [ "obj-29", 0 ]
				}

			}
, 			{
				"patchline" : 				{
					"destination" : [ "obj-4", 1 ],
					"source" : [ "obj-3", 1 ]
				}

			}
, 			{
				"patchline" : 				{
					"destination" : [ "obj-4", 0 ],
					"source" : [ "obj-3", 0 ]
				}

			}
, 			{
				"patchline" : 				{
					"destination" : [ "obj-29", 0 ],
					"source" : [ "obj-30", 0 ]
				}

			}
, 			{
				"patchline" : 				{
					"destination" : [ "obj-11", 0 ],
					"source" : [ "obj-31", 0 ]
				}

			}
, 			{
				"patchline" : 				{
					"destination" : [ "obj-34", 1 ],
					"order" : 1,
					"source" : [ "obj-33", 1 ]
				}

			}
, 			{
				"patchline" : 				{
					"destination" : [ "obj-34", 0 ],
					"order" : 1,
					"source" : [ "obj-33", 0 ]
				}

			}
, 			{
				"patchline" : 				{
					"destination" : [ "obj-37", 0 ],
					"order" : 0,
					"source" : [ "obj-33", 1 ]
				}

			}
, 			{
				"patchline" : 				{
					"destination" : [ "obj-37", 0 ],
					"order" : 0,
					"source" : [ "obj-33", 0 ]
				}

			}
, 			{
				"patchline" : 				{
					"destination" : [ "obj-34", 1 ],
					"source" : [ "obj-35", 1 ]
				}

			}
, 			{
				"patchline" : 				{
					"destination" : [ "obj-34", 0 ],
					"source" : [ "obj-35", 0 ]
				}

			}
, 			{
				"patchline" : 				{
					"destination" : [ "obj-39", 0 ],
					"source" : [ "obj-36", 0 ]
				}

			}
, 			{
				"patchline" : 				{
					"destination" : [ "obj-12", 0 ],
					"order" : 1,
					"source" : [ "obj-37", 0 ]
				}

			}
, 			{
				"patchline" : 				{
					"destination" : [ "obj-67", 0 ],
					"order" : 0,
					"source" : [ "obj-37", 0 ]
				}

			}
, 			{
				"patchline" : 				{
					"destination" : [ "obj-40", 0 ],
					"source" : [ "obj-39", 0 ]
				}

			}
, 			{
				"patchline" : 				{
					"destination" : [ "obj-41", 0 ],
					"source" : [ "obj-40", 0 ]
				}

			}
, 			{
				"patchline" : 				{
					"destination" : [ "obj-46", 0 ],
					"order" : 1,
					"source" : [ "obj-41", 0 ]
				}

			}
, 			{
				"patchline" : 				{
					"destination" : [ "obj-48", 0 ],
					"order" : 0,
					"source" : [ "obj-41", 0 ]
				}

			}
, 			{
				"patchline" : 				{
					"destination" : [ "obj-49", 2 ],
					"source" : [ "obj-42", 0 ]
				}

			}
, 			{
				"patchline" : 				{
					"destination" : [ "obj-40", 2 ],
					"source" : [ "obj-43", 0 ]
				}

			}
, 			{
				"patchline" : 				{
					"destination" : [ "obj-14", 1 ],
					"source" : [ "obj-44", 0 ]
				}

			}
, 			{
				"patchline" : 				{
					"destination" : [ "obj-99", 1 ],
					"source" : [ "obj-45", 0 ]
				}

			}
, 			{
				"patchline" : 				{
					"destination" : [ "obj-44", 0 ],
					"source" : [ "obj-46", 0 ]
				}

			}
, 			{
				"patchline" : 				{
					"destination" : [ "obj-31", 0 ],
					"source" : [ "obj-47", 0 ]
				}

			}
, 			{
				"patchline" : 				{
					"destination" : [ "obj-47", 0 ],
					"source" : [ "obj-48", 0 ]
				}

			}
, 			{
				"patchline" : 				{
					"destination" : [ "obj-45", 0 ],
					"source" : [ "obj-49", 0 ]
				}

			}
, 			{
				"patchline" : 				{
					"destination" : [ "obj-22", 0 ],
					"order" : 0,
					"source" : [ "obj-5", 0 ]
				}

			}
, 			{
				"patchline" : 				{
					"destination" : [ "obj-7", 0 ],
					"order" : 1,
					"source" : [ "obj-5", 0 ]
				}

			}
, 			{
				"patchline" : 				{
					"destination" : [ "obj-49", 0 ],
					"source" : [ "obj-50", 0 ]
				}

			}
, 			{
				"patchline" : 				{
					"destination" : [ "obj-50", 0 ],
					"source" : [ "obj-51", 0 ]
				}

			}
, 			{
				"patchline" : 				{
					"destination" : [ "obj-53", 0 ],
					"source" : [ "obj-52", 0 ]
				}

			}
, 			{
				"patchline" : 				{
					"destination" : [ "obj-79", 0 ],
					"source" : [ "obj-53", 0 ]
				}

			}
, 			{
				"patchline" : 				{
					"destination" : [ "obj-5", 0 ],
					"source" : [ "obj-6", 0 ]
				}

			}
, 			{
				"patchline" : 				{
					"destination" : [ "obj-52", 0 ],
					"source" : [ "obj-60", 0 ]
				}

			}
, 			{
				"patchline" : 				{
					"destination" : [ "obj-65", 3 ],
					"source" : [ "obj-61", 1 ]
				}

			}
, 			{
				"patchline" : 				{
					"destination" : [ "obj-65", 2 ],
					"source" : [ "obj-62", 1 ]
				}

			}
, 			{
				"patchline" : 				{
					"destination" : [ "obj-65", 1 ],
					"source" : [ "obj-63", 1 ]
				}

			}
, 			{
				"patchline" : 				{
					"destination" : [ "obj-65", 0 ],
					"source" : [ "obj-64", 1 ]
				}

			}
, 			{
				"patchline" : 				{
					"destination" : [ "obj-60", 0 ],
					"source" : [ "obj-65", 0 ]
				}

			}
, 			{
				"patchline" : 				{
					"destination" : [ "obj-52", 1 ],
					"source" : [ "obj-70", 0 ]
				}

			}
, 			{
				"patchline" : 				{
					"destination" : [ "obj-78", 0 ],
					"source" : [ "obj-77", 0 ]
				}

			}
, 			{
				"patchline" : 				{
					"destination" : [ "obj-79", 2 ],
					"source" : [ "obj-78", 0 ]
				}

			}
, 			{
				"patchline" : 				{
					"destination" : [ "obj-80", 0 ],
					"order" : 1,
					"source" : [ "obj-79", 0 ]
				}

			}
, 			{
				"patchline" : 				{
					"destination" : [ "obj-81", 0 ],
					"order" : 0,
					"source" : [ "obj-79", 0 ]
				}

			}
, 			{
				"patchline" : 				{
					"destination" : [ "obj-36", 0 ],
					"order" : 1,
					"source" : [ "obj-8", 0 ]
				}

			}
, 			{
				"patchline" : 				{
					"destination" : [ "obj-5", 0 ],
					"order" : 0,
					"source" : [ "obj-8", 0 ]
				}

			}
, 			{
				"patchline" : 				{
					"destination" : [ "obj-99", 0 ],
					"source" : [ "obj-80", 0 ]
				}

			}
, 			{
				"patchline" : 				{
					"destination" : [ "obj-51", 0 ],
					"order" : 0,
					"source" : [ "obj-83", 1 ]
				}

			}
, 			{
				"patchline" : 				{
					"destination" : [ "obj-51", 0 ],
					"order" : 0,
					"source" : [ "obj-83", 0 ]
				}

			}
, 			{
				"patchline" : 				{
					"destination" : [ "obj-82", 1 ],
					"order" : 1,
					"source" : [ "obj-83", 1 ]
				}

			}
, 			{
				"patchline" : 				{
					"destination" : [ "obj-82", 0 ],
					"order" : 1,
					"source" : [ "obj-83", 0 ]
				}

			}
, 			{
				"patchline" : 				{
					"destination" : [ "obj-90", 0 ],
					"source" : [ "obj-85", 0 ]
				}

			}
, 			{
				"patchline" : 				{
					"destination" : [ "obj-90", 1 ],
					"source" : [ "obj-86", 0 ]
				}

			}
, 			{
				"patchline" : 				{
					"destination" : [ "obj-86", 0 ],
					"source" : [ "obj-87", 0 ]
				}

			}
, 			{
				"patchline" : 				{
					"destination" : [ "obj-85", 0 ],
					"source" : [ "obj-88", 0 ]
				}

			}
, 			{
				"patchline" : 				{
					"destination" : [ "obj-88", 0 ],
					"source" : [ "obj-89", 0 ]
				}

			}
, 			{
				"patchline" : 				{
					"destination" : [ "obj-18", 0 ],
					"source" : [ "obj-9", 1 ]
				}

			}
, 			{
				"patchline" : 				{
					"destination" : [ "obj-83", 1 ],
					"order" : 0,
					"source" : [ "obj-90", 0 ]
				}

			}
, 			{
				"patchline" : 				{
					"destination" : [ "obj-83", 0 ],
					"order" : 1,
					"source" : [ "obj-90", 0 ]
				}

			}
, 			{
				"patchline" : 				{
					"destination" : [ "obj-103", 0 ],
					"source" : [ "obj-92", 0 ]
				}

			}
, 			{
				"patchline" : 				{
					"destination" : [ "obj-95", 0 ],
					"source" : [ "obj-94", 0 ]
				}

			}
, 			{
				"patchline" : 				{
					"destination" : [ "obj-51", 0 ],
					"source" : [ "obj-95", 0 ]
				}

			}
, 			{
				"patchline" : 				{
					"destination" : [ "obj-100", 0 ],
					"source" : [ "obj-99", 0 ]
				}

			}
 ],
		"parameters" : 		{
			"obj-103::obj-14" : [ "umenu[3]", "umenu", 0 ],
			"obj-103::obj-22" : [ "range[7]", "range", 0 ],
			"obj-103::obj-24" : [ "pictctrl[73]", "pictctrl[6]", 0 ],
			"obj-103::obj-30" : [ "pictctrl[71]", "pictctrl[5]", 0 ],
			"obj-103::obj-32" : [ "pictctrl[72]", "pictctrl[7]", 0 ],
			"obj-103::obj-39" : [ "pictctrl[74]", "pictctrl[8]", 0 ],
			"obj-103::obj-41" : [ "pictctrl[70]", "pictctrl[10]", 0 ],
			"obj-103::obj-52::obj-23" : [ "gswitch2[4]", "gswitch2", 0 ],
			"obj-103::obj-94" : [ "umenu[2]", "umenu", 0 ],
			"obj-3" : [ "live.gain~", "live.gain~", 0 ],
			"obj-33" : [ "live.gain~[1]", "live.gain~[1]", 0 ],
			"obj-35" : [ "live.gain~[2]", "live.gain~[1]", 0 ],
			"obj-77::obj-12" : [ "Mute", "Mute", 0 ],
			"obj-77::obj-144" : [ "Phase", "Phase", 0 ],
			"obj-77::obj-70" : [ "Amt", "CV Amt", 0 ],
			"obj-77::obj-74" : [ "SyncRate", "Rate", 0 ],
			"obj-77::obj-75" : [ "Shape", "Shape", 0 ],
			"obj-77::obj-81" : [ "Phase-Inversion", "Phase-Inversion", 1 ],
			"obj-77::obj-88" : [ "Time Mode", "Time Mode", 1 ],
			"obj-77::obj-89" : [ "FreqRate", "Rate", 0 ],
			"obj-77::obj-94" : [ "Re-Trigger", "Re-Trigger", 0 ],
			"obj-78::obj-39" : [ "pictctrl[34]", "pictctrl[1]", 0 ],
			"obj-78::obj-6" : [ "pictctrl[12]", "pictctrl[1]", 0 ],
			"obj-78::obj-64" : [ "umenu[4]", "umenu", 0 ],
			"obj-79::obj-104" : [ "pictctrl[9]", "pictctrl[1]", 0 ],
			"obj-79::obj-121" : [ "Invert", "Invert", 0 ],
			"obj-79::obj-128" : [ "range[24]", "range", 0 ],
			"obj-79::obj-24" : [ "Color plane", "Color plane", 0 ],
			"obj-79::obj-25" : [ "Color palette", "Color palette", 0 ],
			"obj-79::obj-26" : [ "pictctrl[5]", "pictctrl[1]", 0 ],
			"obj-79::obj-56::obj-23" : [ "gswitch2[2]", "gswitch2", 0 ],
			"obj-79::obj-6" : [ "range[4]", "range", 0 ],
			"obj-83" : [ "live.gain~[3]", "live.gain~[1]", 0 ],
			"obj-92::obj-127" : [ "pictctrl[7]", "pictctrl[1]", 0 ],
			"obj-92::obj-138" : [ "pictctrl[1]", "pictctrl[1]", 0 ],
			"obj-92::obj-140" : [ "pictctrl[4]", "pictctrl[1]", 0 ],
			"obj-92::obj-142" : [ "pictctrl[2]", "pictctrl[1]", 0 ],
			"obj-92::obj-144" : [ "pictctrl[6]", "pictctrl[1]", 0 ],
			"obj-92::obj-15" : [ "pictctrl[52]", "pictctrl[1]", 0 ],
			"obj-92::obj-28" : [ "Rate", "Rate", 0 ],
			"obj-92::obj-33" : [ "pictctrl[3]", "pictctrl[1]", 0 ],
			"obj-92::obj-7" : [ "textbutton[1]", "textbutton[1]", 0 ],
			"obj-92::obj-8" : [ "pictctrl[10]", "pictctrl[1]", 0 ],
			"obj-92::obj-86" : [ "FreqMode[2]", "FreqMode", 0 ],
			"obj-99::obj-1" : [ "Slide down", "Slide down", 0 ],
			"obj-99::obj-21" : [ "pictctrl[11]", "pictctrl[1]", 0 ],
			"obj-99::obj-28" : [ "pictctrl[13]", "pictctrl[1]", 0 ],
			"obj-99::obj-50" : [ "Slide up", "Slide up", 0 ],
			"obj-99::obj-56::obj-23" : [ "gswitch2[3]", "gswitch2", 0 ],
			"obj-99::obj-6" : [ "range[1]", "range", 0 ],
			"parameterbanks" : 			{

			}
,
			"parameter_overrides" : 			{
				"obj-92::obj-8" : 				{
					"parameter_longname" : "pictctrl[10]"
				}
,
				"obj-99::obj-21" : 				{
					"parameter_longname" : "pictctrl[11]"
				}
,
				"obj-99::obj-28" : 				{
					"parameter_longname" : "pictctrl[13]"
				}

			}
,
			"inherited_shortname" : 1
		}
,
		"dependency_cache" : [ 			{
				"name" : "jongly.aif",
				"bootpath" : "C74:/media/msp",
				"type" : "AIFF",
				"implicit" : 1
			}
, 			{
				"name" : "bp.CV LFO.maxpat",
				"bootpath" : "C74:/packages/Beap/clippings/BEAP/LFO",
				"type" : "JSON",
				"implicit" : 1
			}
, 			{
				"name" : "vz.beapconvertr.maxpat",
				"bootpath" : "~/Documents/Max 8/Packages/Vizzie/patchers",
				"patcherrelativepath" : "../../../Max 8/Packages/Vizzie/patchers",
				"type" : "JSON",
				"implicit" : 1
			}
, 			{
				"name" : "snapshot_UI.maxpat",
				"bootpath" : "~/Documents/Max 8/Packages/Vizzie/patchers/utils",
				"patcherrelativepath" : "../../../Max 8/Packages/Vizzie/patchers/utils",
				"type" : "JSON",
				"implicit" : 1
			}
, 			{
				"name" : "vzgl-disable.maxpat",
				"bootpath" : "~/Documents/Max 8/Packages/Vizzie/patchers/utils",
				"patcherrelativepath" : "../../../Max 8/Packages/Vizzie/patchers/utils",
				"type" : "JSON",
				"implicit" : 1
			}
, 			{
				"name" : "vz.colorizr.maxpat",
				"bootpath" : "~/Documents/Max 8/Packages/Vizzie/patchers",
				"patcherrelativepath" : "../../../Max 8/Packages/Vizzie/patchers",
				"type" : "JSON",
				"implicit" : 1
			}
, 			{
				"name" : "video-handler.maxpat",
				"bootpath" : "~/Documents/Max 8/Packages/Vizzie/patchers/utils",
				"patcherrelativepath" : "../../../Max 8/Packages/Vizzie/patchers/utils",
				"type" : "JSON",
				"implicit" : 1
			}
, 			{
				"name" : "vzgl-outputdim.maxpat",
				"bootpath" : "~/Documents/Max 8/Packages/Vizzie/patchers/utils",
				"patcherrelativepath" : "../../../Max 8/Packages/Vizzie/patchers/utils",
				"type" : "JSON",
				"implicit" : 1
			}
, 			{
				"name" : "vzgl-object.maxpat",
				"bootpath" : "~/Documents/Max 8/Packages/Vizzie/patchers/utils",
				"patcherrelativepath" : "../../../Max 8/Packages/Vizzie/patchers/utils",
				"type" : "JSON",
				"implicit" : 1
			}
, 			{
				"name" : "vizzie-global.js",
				"bootpath" : "~/Documents/Max 8/Packages/Vizzie/code",
				"patcherrelativepath" : "../../../Max 8/Packages/Vizzie/code",
				"type" : "TEXT",
				"implicit" : 1
			}
, 			{
				"name" : "colorizer.genjit",
				"bootpath" : "~/Documents/Max 8/Packages/Vizzie/patchers/gen",
				"patcherrelativepath" : "../../../Max 8/Packages/Vizzie/patchers/gen",
				"type" : "gJIT",
				"implicit" : 1
			}
, 			{
				"name" : "data-handler.maxpat",
				"bootpath" : "~/Documents/Max 8/Packages/Vizzie/patchers/utils",
				"patcherrelativepath" : "../../../Max 8/Packages/Vizzie/patchers/utils",
				"type" : "JSON",
				"implicit" : 1
			}
, 			{
				"name" : "exact_menu.maxpat",
				"bootpath" : "~/Documents/Max 8/Packages/Vizzie/patchers/utils",
				"patcherrelativepath" : "../../../Max 8/Packages/Vizzie/patchers/utils",
				"type" : "JSON",
				"implicit" : 1
			}
, 			{
				"name" : "vz.attractr.maxpat",
				"bootpath" : "~/Documents/Max 8/Packages/Vizzie/patchers",
				"patcherrelativepath" : "../../../Max 8/Packages/Vizzie/patchers",
				"type" : "JSON",
				"implicit" : 1
			}
, 			{
				"name" : "data_smoother.maxpat",
				"bootpath" : "~/Documents/Max 8/Packages/Vizzie/patchers/utils",
				"patcherrelativepath" : "../../../Max 8/Packages/Vizzie/patchers/utils",
				"type" : "JSON",
				"implicit" : 1
			}
, 			{
				"name" : "vz.slidr.maxpat",
				"bootpath" : "~/Documents/Max 8/Packages/Vizzie/patchers",
				"patcherrelativepath" : "../../../Max 8/Packages/Vizzie/patchers",
				"type" : "JSON",
				"implicit" : 1
			}
, 			{
				"name" : "vz.vizzieconvertr.maxpat",
				"bootpath" : "~/Documents/Max 8/Packages/Vizzie/patchers",
				"patcherrelativepath" : "../../../Max 8/Packages/Vizzie/patchers",
				"type" : "JSON",
				"implicit" : 1
			}
, 			{
				"name" : "mc.jit.catch~.mxe64",
				"type" : "mx64"
			}
, 			{
				"name" : "jit.pass.mxe64",
				"type" : "mx64"
			}
, 			{
				"name" : "jit.movie~.mxe64",
				"type" : "mx64"
			}
 ],
		"autosave" : 0
	}

}
